<svg width="116" height="92" viewBox="0 0 116 92" fill="none" xmlns="http://www.w3.org/2000/svg">
<g clip-path="url(#clip0_103_5)">
<g filter="url(#filter0_d_103_5)">
<path d="M1.976 87V85.856H9.958C10.7727 85.856 11.466 85.674 12.038 85.31C12.61 84.9287 13.0347 84.4433 13.312 83.854C13.6067 83.2647 13.754 82.6493 13.754 82.008C13.754 81.384 13.6153 80.7947 13.338 80.24C13.0607 79.668 12.6447 79.2087 12.09 78.862C11.5527 78.498 10.8767 78.316 10.062 78.316H6.24C5.2 78.316 4.316 78.108 3.588 77.692C2.86 77.2587 2.30533 76.6867 1.924 75.976C1.54267 75.248 1.352 74.4767 1.352 73.662C1.352 72.83 1.54267 72.0413 1.924 71.296C2.30533 70.5507 2.86867 69.9527 3.614 69.502C4.35933 69.034 5.26067 68.8 6.318 68.8H13.832V69.944H6.396C5.59867 69.944 4.914 70.126 4.342 70.49C3.78733 70.8367 3.36267 71.2873 3.068 71.842C2.77333 72.3967 2.626 72.9773 2.626 73.584C2.626 74.156 2.756 74.7193 3.016 75.274C3.29333 75.8287 3.70067 76.2793 4.238 76.626C4.79267 76.9727 5.46867 77.146 6.266 77.146H10.114C11.1887 77.146 12.09 77.3627 12.818 77.796C13.546 78.2293 14.092 78.81 14.456 79.538C14.82 80.2487 15.002 81.0287 15.002 81.878C15.002 82.762 14.8113 83.6027 14.43 84.4C14.066 85.18 13.5113 85.8127 12.766 86.298C12.0207 86.766 11.1107 87 10.036 87H1.976ZM18.4322 87V78.94C18.4322 77.9173 18.6488 76.99 19.0822 76.158C19.5328 75.326 20.1655 74.6673 20.9802 74.182C21.7948 73.6793 22.7742 73.428 23.9182 73.428C24.5075 73.428 25.1315 73.5233 25.7902 73.714C26.4662 73.9047 27.0902 74.2513 27.6622 74.754C28.2342 75.2393 28.6588 75.95 28.9362 76.886H28.9622C29.2742 75.95 29.7162 75.2393 30.2882 74.754C30.8775 74.2513 31.5015 73.9047 32.1602 73.714C32.8362 73.5233 33.4688 73.428 34.0582 73.428C35.1848 73.428 36.1555 73.6793 36.9702 74.182C37.8022 74.6673 38.4348 75.326 38.8682 76.158C39.3015 76.99 39.5182 77.9173 39.5182 78.94V87H38.2962V78.94C38.2962 78.0733 38.1055 77.3107 37.7242 76.652C37.3602 75.9933 36.8575 75.4733 36.2162 75.092C35.5748 74.6933 34.8468 74.494 34.0322 74.494C33.2002 74.494 32.4462 74.6933 31.7702 75.092C31.0942 75.4907 30.5568 76.028 30.1582 76.704C29.7768 77.3627 29.5862 78.108 29.5862 78.94V87H28.3382V78.94C28.3382 78.108 28.1388 77.3627 27.7402 76.704C27.3588 76.028 26.8302 75.4907 26.1542 75.092C25.4955 74.6933 24.7415 74.494 23.8922 74.494C23.0948 74.494 22.3668 74.6933 21.7082 75.092C21.0668 75.4733 20.5642 75.9933 20.2002 76.652C19.8362 77.3107 19.6542 78.0733 19.6542 78.94V87H18.4322ZM49.5192 87.338C48.1672 87.338 47.0059 87.0347 46.0352 86.428C45.0646 85.804 44.3192 84.9633 43.7992 83.906C43.2966 82.8487 43.0452 81.6613 43.0452 80.344C43.0452 79.044 43.3139 77.874 43.8512 76.834C44.4059 75.7767 45.1946 74.9447 46.2172 74.338C47.2399 73.7313 48.4619 73.428 49.8832 73.428C51.2179 73.428 52.3792 73.7313 53.3672 74.338C54.3552 74.9273 55.1179 75.7333 55.6552 76.756C56.2099 77.7613 56.4872 78.9053 56.4872 80.188V87H55.2652V83.802H55.1872C54.9446 84.3393 54.5632 84.8853 54.0432 85.44C53.5406 85.9773 52.9079 86.428 52.1452 86.792C51.3999 87.156 50.5246 87.338 49.5192 87.338ZM49.7272 86.272C50.7846 86.272 51.7292 86.0207 52.5612 85.518C53.3932 84.998 54.0432 84.2873 54.5112 83.386C54.9966 82.4673 55.2392 81.436 55.2392 80.292C55.2392 79.1827 55.0139 78.1947 54.5632 77.328C54.1299 76.444 53.5059 75.7507 52.6912 75.248C51.8766 74.7453 50.9232 74.494 49.8312 74.494C48.6872 74.494 47.6992 74.754 46.8672 75.274C46.0526 75.794 45.4199 76.5047 44.9692 77.406C44.5359 78.3073 44.3192 79.33 44.3192 80.474C44.3192 81.5313 44.5272 82.502 44.9432 83.386C45.3592 84.27 45.9746 84.972 46.7892 85.492C47.6039 86.012 48.5832 86.272 49.7272 86.272ZM60.6816 87V77.51C60.6816 76.3313 61.0109 75.4127 61.6696 74.754C62.3456 74.078 63.2729 73.74 64.4516 73.74H66.2716V74.832H64.7116C63.7929 74.832 63.0909 75.0833 62.6056 75.586C62.1376 76.0887 61.9036 76.808 61.9036 77.744V87H60.6816ZM73.6848 87C72.5061 87 71.5788 86.662 70.9028 85.986C70.2441 85.31 69.9148 84.3913 69.9148 83.23V70.412H71.1628V82.996C71.1628 83.932 71.3968 84.6513 71.8648 85.154C72.3328 85.6567 73.0348 85.908 73.9708 85.908H76.4148V87H73.6848ZM67.6008 74.832V73.74H76.4928V74.832H67.6008ZM87.5034 87C86.1514 87 84.9034 86.766 83.7594 86.298C82.6154 85.8127 81.6274 85.154 80.7954 84.322C79.9807 83.4727 79.3481 82.502 78.8974 81.41C78.4467 80.3007 78.2214 79.122 78.2214 77.874C78.2214 76.626 78.4467 75.456 78.8974 74.364C79.3481 73.272 79.9807 72.31 80.7954 71.478C81.6274 70.646 82.6154 69.996 83.7594 69.528C84.9034 69.0427 86.1514 68.8 87.5034 68.8H89.3754V69.944H87.5814C86.4547 69.944 85.3974 70.152 84.4094 70.568C83.4387 70.9667 82.5894 71.5213 81.8614 72.232C81.1334 72.9427 80.5614 73.7833 80.1454 74.754C79.7467 75.7073 79.5474 76.7473 79.5474 77.874C79.5474 79.018 79.7467 80.0753 80.1454 81.046C80.5614 81.9993 81.1334 82.84 81.8614 83.568C82.5894 84.2787 83.4387 84.8333 84.4094 85.232C85.3974 85.6307 86.4547 85.8387 87.5814 85.856H89.3754V87H87.5034ZM99.0789 87C97.6922 87 96.4356 86.7487 95.3089 86.246C94.1822 85.726 93.2896 84.972 92.6309 83.984C91.9722 82.996 91.6429 81.7913 91.6429 80.37C91.6429 79.1393 91.8942 77.9953 92.3969 76.938C92.8996 75.8807 93.6102 75.0313 94.5289 74.39C95.4649 73.7487 96.5656 73.428 97.8309 73.428C99.0789 73.428 100.145 73.7053 101.029 74.26C101.93 74.8147 102.615 75.5687 103.083 76.522C103.568 77.458 103.811 78.5153 103.811 79.694C103.811 79.8847 103.802 80.0753 103.785 80.266C103.785 80.4567 103.768 80.6473 103.733 80.838H92.9429C92.9776 81.93 93.2722 82.8573 93.8269 83.62C94.3816 84.3827 95.1096 84.9547 96.0109 85.336C96.9122 85.7173 97.8829 85.908 98.9229 85.908H102.173V87H99.0789ZM92.9429 79.876H102.537C102.554 79.5293 102.528 79.122 102.459 78.654C102.407 78.186 102.286 77.718 102.095 77.25C101.904 76.7647 101.627 76.314 101.263 75.898C100.916 75.482 100.457 75.144 99.8849 74.884C99.3129 74.624 98.6109 74.494 97.7789 74.494C97.0336 74.494 96.3576 74.65 95.7509 74.962C95.1616 75.274 94.6589 75.6987 94.2429 76.236C93.8269 76.756 93.5062 77.3367 93.2809 77.978C93.0556 78.602 92.9429 79.2347 92.9429 79.876ZM107.325 87V68.02H108.547V87H107.325ZM112.758 87V68.02H113.98V87H112.758Z" fill="#59CBE8"/>
</g>
<g filter="url(#filter1_d_103_5)">
<circle cx="59" cy="30" r="22" stroke="#59CBE8"/>
<circle cx="58.5" cy="51.5" r="5.5" stroke="#59CBE8"/>
<circle cx="80.5" cy="29.5" r="5.5" stroke="#59CBE8"/>
<circle cx="36.5" cy="29.5" r="5.5" stroke="#59CBE8"/>
<circle cx="42.5" cy="13.5" r="5.5" stroke="#59CBE8"/>
<circle cx="75.5" cy="13.5" r="5.5" stroke="#59CBE8"/>
<circle cx="75.5" cy="46.5" r="5.5" stroke="#59CBE8"/>
<circle cx="42.5" cy="46.5" r="5.5" stroke="#59CBE8"/>
<circle cx="58.5" cy="7.5" r="5.5" stroke="#59CBE8"/>
</g>
</g>
<defs>
<filter id="filter0_d_103_5" x="1.352" y="68.02" width="116.628" height="23.318" filterUnits="userSpaceOnUse" color-interpolation-filters="sRGB">
<feFlood flood-opacity="0" result="BackgroundImageFix"/>
<feColorMatrix in="SourceAlpha" type="matrix" values="0 0 0 0 0 0 0 0 0 0 0 0 0 0 0 0 0 0 127 0" result="hardAlpha"/>
<feOffset dx="2" dy="2"/>
<feGaussianBlur stdDeviation="1"/>
<feComposite in2="hardAlpha" operator="out"/>
<feColorMatrix type="matrix" values="0 0 0 0 0 0 0 0 0 0 0 0 0 0 0 0 0 0 1 0"/>
<feBlend mode="normal" in2="BackgroundImageFix" result="effect1_dropShadow_103_5"/>
<feBlend mode="normal" in="SourceGraphic" in2="effect1_dropShadow_103_5" result="shape"/>
</filter>
<filter id="filter1_d_103_5" x="30.5" y="1.5" width="60" height="60" filterUnits="userSpaceOnUse" color-interpolation-filters="sRGB">
<feFlood flood-opacity="0" result="BackgroundImageFix"/>
<feColorMatrix in="SourceAlpha" type="matrix" values="0 0 0 0 0 0 0 0 0 0 0 0 0 0 0 0 0 0 127 0" result="hardAlpha"/>
<feOffset dx="2" dy="2"/>
<feGaussianBlur stdDeviation="1"/>
<feComposite in2="hardAlpha" operator="out"/>
<feColorMatrix type="matrix" values="0 0 0 0 0 0 0 0 0 0 0 0 0 0 0 0 0 0 1 0"/>
<feBlend mode="normal" in2="BackgroundImageFix" result="effect1_dropShadow_103_5"/>
<feBlend mode="normal" in="SourceGraphic" in2="effect1_dropShadow_103_5" result="shape"/>
</filter>
<clipPath id="clip0_103_5">
<rect width="116" height="92" fill="white"/>
</clipPath>
</defs>
</svg>
